REM DIRINDEX 1\2\4,1\2\5,1\2\6,1\3\7,1\3\8
REM DIRNAME cjc128,folder01,folder02,folder03,folder04,folder05,folder06,folder07
TITLE ""
FILE "011_Lesson 09_Output_Stage.mp3" MP3
  TRACK 01 AUDIO
    TITLE "0:"
    INDEX 01 00:00:00
  TRACK 02 AUDIO
    TITLE "8:cjc128_2812"
    INDEX 01 00:00:11
  TRACK 03 AUDIO
    TITLE "0:"
    INDEX 01 00:02:73
  TRACK 04 AUDIO
    TITLE "8:cjc128_2813"
    INDEX 01 00:03:61
  TRACK 05 AUDIO
    TITLE "0:"
    INDEX 01 00:05:28
  TRACK 06 AUDIO
    TITLE "7:cjc128_2814"
    INDEX 01 00:06:04
  TRACK 07 AUDIO
    TITLE "0:"
    INDEX 01 00:09:32
  TRACK 08 AUDIO
    TITLE "8:cjc128_2815"
    INDEX 01 00:12:73
  TRACK 09 AUDIO
    TITLE "0:"
    INDEX 01 00:14:68
  TRACK 10 AUDIO
    TITLE "7:cjc128_2816"
    INDEX 01 00:15:54
  TRACK 11 AUDIO
    TITLE "0:"
    INDEX 01 00:17:67
  TRACK 12 AUDIO
    TITLE "8:cjc128_2817"
    INDEX 01 00:20:53
  TRACK 13 AUDIO
    TITLE "0:"
    INDEX 01 00:22:46
  TRACK 14 AUDIO
    TITLE "7:cjc128_2818"
    INDEX 01 00:23:30
  TRACK 15 AUDIO
    TITLE "0:"
    INDEX 01 00:25:58
  TRACK 16 AUDIO
    TITLE "8:cjc128_2819"
    INDEX 01 00:28:43
  TRACK 17 AUDIO
    TITLE "0:"
    INDEX 01 00:30:40
  TRACK 18 AUDIO
    TITLE "7:cjc128_2820"
    INDEX 01 00:31:27
  TRACK 19 AUDIO
    TITLE "0:"
    INDEX 01 00:33:50
  TRACK 20 AUDIO
    TITLE "8:cjc128_2821"
    INDEX 01 00:36:36
  TRACK 21 AUDIO
    TITLE "0:"
    INDEX 01 00:38:26
  TRACK 22 AUDIO
    TITLE "7:cjc128_2822"
    INDEX 01 00:39:17
  TRACK 23 AUDIO
    TITLE "0:"
    INDEX 01 00:41:44
  TRACK 24 AUDIO
    TITLE "8:cjc128_2823"
    INDEX 01 00:44:42
  TRACK 25 AUDIO
    TITLE "0:"
    INDEX 01 00:46:43
  TRACK 26 AUDIO
    TITLE "7:cjc128_2824"
    INDEX 01 00:47:23
  TRACK 27 AUDIO
    TITLE "0:"
    INDEX 01 00:50:29
  TRACK 28 AUDIO
    TITLE "8:cjc128_2825"
    INDEX 01 00:54:11
  TRACK 29 AUDIO
    TITLE "0:"
    INDEX 01 00:56:10
  TRACK 30 AUDIO
    TITLE "7:cjc128_2826"
    INDEX 01 00:56:69
  TRACK 31 AUDIO
    TITLE "0:"
    INDEX 01 00:58:73
  TRACK 32 AUDIO
    TITLE "8:cjc128_2827"
    INDEX 01 01:01:31
  TRACK 33 AUDIO
    TITLE "0:"
    INDEX 01 01:03:22
  TRACK 34 AUDIO
    TITLE "7:cjc128_2828"
    INDEX 01 01:04:07
  TRACK 35 AUDIO
    TITLE "0:"
    INDEX 01 01:06:02
  TRACK 36 AUDIO
    TITLE "8:cjc128_2829"
    INDEX 01 01:08:44
  TRACK 37 AUDIO
    TITLE "0:"
    INDEX 01 01:10:30
  TRACK 38 AUDIO
    TITLE "7:cjc128_2830"
    INDEX 01 01:11:11
  TRACK 39 AUDIO
    TITLE "0:"
    INDEX 01 01:13:53
  TRACK 40 AUDIO
    TITLE "8:cjc128_2831"
    INDEX 01 01:16:73
  TRACK 41 AUDIO
    TITLE "0:"
    INDEX 01 01:18:70
  TRACK 42 AUDIO
    TITLE "7:cjc128_2832"
    INDEX 01 01:19:52
  TRACK 43 AUDIO
    TITLE "0:"
    INDEX 01 01:22:64
  TRACK 44 AUDIO
    TITLE "8:cjc128_2833"
    INDEX 01 01:26:46
  TRACK 45 AUDIO
    TITLE "0:"
    INDEX 01 01:27:61
  TRACK 46 AUDIO
    TITLE "7:cjc128_2834"
    INDEX 01 01:28:45
  TRACK 47 AUDIO
    TITLE "0:"
    INDEX 01 01:30:50
  TRACK 48 AUDIO
    TITLE "8:cjc128_2835"
    INDEX 01 01:33:42
  TRACK 49 AUDIO
    TITLE "0:"
    INDEX 01 01:35:22
  TRACK 50 AUDIO
    TITLE "7:cjc128_2836"
    INDEX 01 01:36:09
  TRACK 51 AUDIO
    TITLE "0:"
    INDEX 01 01:39:37
  TRACK 52 AUDIO
    TITLE "8:cjc128_2837"
    INDEX 01 01:43:52
  TRACK 53 AUDIO
    TITLE "0:"
    INDEX 01 01:45:28
  TRACK 54 AUDIO
    TITLE "7:cjc128_2838"
    INDEX 01 01:46:16
  TRACK 55 AUDIO
    TITLE "0:"
    INDEX 01 01:49:28
  TRACK 56 AUDIO
    TITLE "8:cjc128_2839"
    INDEX 01 01:52:71
  TRACK 57 AUDIO
    TITLE "0:"
    INDEX 01 01:54:50
  TRACK 58 AUDIO
    TITLE "7:cjc128_2840"
    INDEX 01 01:55:36
  TRACK 59 AUDIO
    TITLE "0:"
    INDEX 01 01:57:70
  TRACK 60 AUDIO
    TITLE "8:cjc128_2841"
    INDEX 01 02:00:69
  TRACK 61 AUDIO
    TITLE "0:"
    INDEX 01 02:02:46
  TRACK 62 AUDIO
    TITLE "7:cjc128_2842"
    INDEX 01 02:03:34
  TRACK 63 AUDIO
    TITLE "0:"
    INDEX 01 02:05:50
  TRACK 64 AUDIO
    TITLE "8:cjc128_2843"
    INDEX 01 02:08:37
  TRACK 65 AUDIO
    TITLE "0:"
    INDEX 01 02:10:26
  TRACK 66 AUDIO
    TITLE "7:cjc128_2844"
    INDEX 01 02:11:14
  TRACK 67 AUDIO
    TITLE "0:"
    INDEX 01 02:13:46
  TRACK 68 AUDIO
    TITLE "8:cjc128_2845"
    INDEX 01 02:16:66
  TRACK 69 AUDIO
    TITLE "0:"
    INDEX 01 02:18:43
  TRACK 70 AUDIO
    TITLE "7:cjc128_2846"
    INDEX 01 02:19:33
  TRACK 71 AUDIO
    TITLE "0:"
    INDEX 01 02:22:09
  TRACK 72 AUDIO
    TITLE "8:cjc128_2847"
    INDEX 01 02:25:35
  TRACK 73 AUDIO
    TITLE "0:"
    INDEX 01 02:27:20
  TRACK 74 AUDIO
    TITLE "7:cjc128_2848"
    INDEX 01 02:28:04
  TRACK 75 AUDIO
    TITLE "0:"
    INDEX 01 02:30:27
  TRACK 76 AUDIO
    TITLE "8:cjc128_2849"
    INDEX 01 02:33:35
  TRACK 77 AUDIO
    TITLE "0:"
    INDEX 01 02:35:04
  TRACK 78 AUDIO
    TITLE "7:cjc128_2850"
    INDEX 01 02:35:65
  TRACK 79 AUDIO
    TITLE "0:"
    INDEX 01 02:38:73
  TRACK 80 AUDIO
    TITLE "8:cjc128_2851"
    INDEX 01 02:42:49
  TRACK 81 AUDIO
    TITLE "0:"
    INDEX 01 02:44:33
  TRACK 82 AUDIO
    TITLE "7:cjc128_2852"
    INDEX 01 02:44:74
  TRACK 83 AUDIO
    TITLE "0:"
    INDEX 01 02:47:29
  TRACK 84 AUDIO
    TITLE "8:cjc128_2853"
    INDEX 01 02:50:12
  TRACK 85 AUDIO
    TITLE "0:"
    INDEX 01 02:51:50
  TRACK 86 AUDIO
    TITLE "7:cjc128_2854"
    INDEX 01 02:52:36
  TRACK 87 AUDIO
    TITLE "0:"
    INDEX 01 02:54:58
